<mxfile host="app.diagrams.net" modified="2020-10-29T13:21:24.911Z" agent="5.0 (Windows NT 10.0; Win64; x64) AppleWebKit/537.36 (KHTML, like Gecko) Chrome/86.0.4240.111 Safari/537.36" etag="2zZMAk1n7as7k_OdUqz8" version="13.8.6" type="github">
  <diagram id="C5RBs43oDa-KdzZeNtuy" name="Page-1">
    <mxGraphModel dx="1153" dy="644" grid="1" gridSize="10" guides="1" tooltips="1" connect="1" arrows="1" fold="1" page="1" pageScale="1" pageWidth="827" pageHeight="1169" math="0" shadow="0">
      <root>
        <mxCell id="WIyWlLk6GJQsqaUBKTNV-0" />
        <mxCell id="WIyWlLk6GJQsqaUBKTNV-1" parent="WIyWlLk6GJQsqaUBKTNV-0" />
        <mxCell id="1Pa2cybxxwADOPsCGVAZ-12" value="" style="edgeStyle=orthogonalEdgeStyle;rounded=0;orthogonalLoop=1;jettySize=auto;html=1;" edge="1" parent="WIyWlLk6GJQsqaUBKTNV-1" source="1Pa2cybxxwADOPsCGVAZ-0" target="1Pa2cybxxwADOPsCGVAZ-2">
          <mxGeometry relative="1" as="geometry" />
        </mxCell>
        <mxCell id="1Pa2cybxxwADOPsCGVAZ-0" value="Start" style="rounded=1;whiteSpace=wrap;html=1;" vertex="1" parent="WIyWlLk6GJQsqaUBKTNV-1">
          <mxGeometry x="270" y="30" width="120" height="60" as="geometry" />
        </mxCell>
        <mxCell id="1Pa2cybxxwADOPsCGVAZ-13" value="" style="edgeStyle=orthogonalEdgeStyle;rounded=0;orthogonalLoop=1;jettySize=auto;html=1;" edge="1" parent="WIyWlLk6GJQsqaUBKTNV-1" source="1Pa2cybxxwADOPsCGVAZ-2" target="1Pa2cybxxwADOPsCGVAZ-3">
          <mxGeometry relative="1" as="geometry" />
        </mxCell>
        <mxCell id="1Pa2cybxxwADOPsCGVAZ-2" value="Get Score" style="rounded=0;whiteSpace=wrap;html=1;" vertex="1" parent="WIyWlLk6GJQsqaUBKTNV-1">
          <mxGeometry x="270" y="140" width="120" height="60" as="geometry" />
        </mxCell>
        <mxCell id="1Pa2cybxxwADOPsCGVAZ-15" value="" style="edgeStyle=orthogonalEdgeStyle;rounded=0;orthogonalLoop=1;jettySize=auto;html=1;" edge="1" parent="WIyWlLk6GJQsqaUBKTNV-1" source="1Pa2cybxxwADOPsCGVAZ-3" target="1Pa2cybxxwADOPsCGVAZ-4">
          <mxGeometry relative="1" as="geometry" />
        </mxCell>
        <mxCell id="1Pa2cybxxwADOPsCGVAZ-3" value="i =0" style="rounded=0;whiteSpace=wrap;html=1;" vertex="1" parent="WIyWlLk6GJQsqaUBKTNV-1">
          <mxGeometry x="270" y="250" width="120" height="60" as="geometry" />
        </mxCell>
        <mxCell id="1Pa2cybxxwADOPsCGVAZ-16" style="edgeStyle=orthogonalEdgeStyle;rounded=0;orthogonalLoop=1;jettySize=auto;html=1;entryX=1;entryY=0.5;entryDx=0;entryDy=0;exitX=1;exitY=0.5;exitDx=0;exitDy=0;" edge="1" parent="WIyWlLk6GJQsqaUBKTNV-1" source="1Pa2cybxxwADOPsCGVAZ-4" target="1Pa2cybxxwADOPsCGVAZ-10">
          <mxGeometry relative="1" as="geometry">
            <Array as="points">
              <mxPoint x="720" y="380" />
              <mxPoint x="720" y="760" />
            </Array>
          </mxGeometry>
        </mxCell>
        <mxCell id="1Pa2cybxxwADOPsCGVAZ-4" value="i &amp;lt;=10" style="rhombus;whiteSpace=wrap;html=1;" vertex="1" parent="WIyWlLk6GJQsqaUBKTNV-1">
          <mxGeometry x="275" y="340" width="110" height="80" as="geometry" />
        </mxCell>
        <mxCell id="1Pa2cybxxwADOPsCGVAZ-20" value="" style="edgeStyle=orthogonalEdgeStyle;rounded=0;orthogonalLoop=1;jettySize=auto;html=1;" edge="1" parent="WIyWlLk6GJQsqaUBKTNV-1" source="1Pa2cybxxwADOPsCGVAZ-5" target="1Pa2cybxxwADOPsCGVAZ-6">
          <mxGeometry relative="1" as="geometry" />
        </mxCell>
        <mxCell id="1Pa2cybxxwADOPsCGVAZ-24" value="" style="edgeStyle=orthogonalEdgeStyle;rounded=0;orthogonalLoop=1;jettySize=auto;html=1;" edge="1" parent="WIyWlLk6GJQsqaUBKTNV-1" source="1Pa2cybxxwADOPsCGVAZ-5" target="1Pa2cybxxwADOPsCGVAZ-7">
          <mxGeometry relative="1" as="geometry" />
        </mxCell>
        <mxCell id="1Pa2cybxxwADOPsCGVAZ-5" value="Score &amp;lt; 50" style="rhombus;whiteSpace=wrap;html=1;" vertex="1" parent="WIyWlLk6GJQsqaUBKTNV-1">
          <mxGeometry x="100" y="460" width="110" height="70" as="geometry" />
        </mxCell>
        <mxCell id="1Pa2cybxxwADOPsCGVAZ-18" style="edgeStyle=orthogonalEdgeStyle;rounded=0;orthogonalLoop=1;jettySize=auto;html=1;exitX=0.5;exitY=1;exitDx=0;exitDy=0;entryX=0.5;entryY=0;entryDx=0;entryDy=0;" edge="1" parent="WIyWlLk6GJQsqaUBKTNV-1" source="1Pa2cybxxwADOPsCGVAZ-4" target="1Pa2cybxxwADOPsCGVAZ-5">
          <mxGeometry relative="1" as="geometry" />
        </mxCell>
        <mxCell id="1Pa2cybxxwADOPsCGVAZ-21" style="edgeStyle=orthogonalEdgeStyle;rounded=0;orthogonalLoop=1;jettySize=auto;html=1;entryX=0;entryY=0.5;entryDx=0;entryDy=0;" edge="1" parent="WIyWlLk6GJQsqaUBKTNV-1" source="1Pa2cybxxwADOPsCGVAZ-6" target="1Pa2cybxxwADOPsCGVAZ-9">
          <mxGeometry relative="1" as="geometry">
            <mxPoint x="460" y="600" as="targetPoint" />
          </mxGeometry>
        </mxCell>
        <mxCell id="1Pa2cybxxwADOPsCGVAZ-22" value="" style="edgeStyle=orthogonalEdgeStyle;rounded=0;orthogonalLoop=1;jettySize=auto;html=1;" edge="1" parent="WIyWlLk6GJQsqaUBKTNV-1" source="1Pa2cybxxwADOPsCGVAZ-6" target="1Pa2cybxxwADOPsCGVAZ-8">
          <mxGeometry relative="1" as="geometry" />
        </mxCell>
        <mxCell id="1Pa2cybxxwADOPsCGVAZ-6" value="Score &amp;lt;80" style="rhombus;whiteSpace=wrap;html=1;" vertex="1" parent="WIyWlLk6GJQsqaUBKTNV-1">
          <mxGeometry x="275" y="460" width="110" height="70" as="geometry" />
        </mxCell>
        <mxCell id="1Pa2cybxxwADOPsCGVAZ-7" value="Display &quot;F&quot;" style="rounded=0;whiteSpace=wrap;html=1;" vertex="1" parent="WIyWlLk6GJQsqaUBKTNV-1">
          <mxGeometry x="95" y="570" width="120" height="60" as="geometry" />
        </mxCell>
        <mxCell id="1Pa2cybxxwADOPsCGVAZ-34" value="" style="edgeStyle=orthogonalEdgeStyle;rounded=0;orthogonalLoop=1;jettySize=auto;html=1;" edge="1" parent="WIyWlLk6GJQsqaUBKTNV-1" source="1Pa2cybxxwADOPsCGVAZ-8" target="1Pa2cybxxwADOPsCGVAZ-33">
          <mxGeometry relative="1" as="geometry" />
        </mxCell>
        <mxCell id="1Pa2cybxxwADOPsCGVAZ-8" value="&lt;span&gt;Display &quot;Good&quot;&lt;/span&gt;" style="rounded=0;whiteSpace=wrap;html=1;" vertex="1" parent="WIyWlLk6GJQsqaUBKTNV-1">
          <mxGeometry x="270" y="560" width="120" height="60" as="geometry" />
        </mxCell>
        <mxCell id="1Pa2cybxxwADOPsCGVAZ-23" style="rounded=0;orthogonalLoop=1;jettySize=auto;html=1;entryX=0.5;entryY=1;entryDx=0;entryDy=0;exitX=0.5;exitY=1;exitDx=0;exitDy=0;edgeStyle=orthogonalEdgeStyle;shape=link;" edge="1" parent="WIyWlLk6GJQsqaUBKTNV-1" source="1Pa2cybxxwADOPsCGVAZ-9" target="1Pa2cybxxwADOPsCGVAZ-7">
          <mxGeometry relative="1" as="geometry" />
        </mxCell>
        <mxCell id="1Pa2cybxxwADOPsCGVAZ-9" value="&lt;br&gt;&lt;span style=&quot;color: rgb(0 , 0 , 0) ; font-family: &amp;#34;helvetica&amp;#34; ; font-size: 12px ; font-style: normal ; font-weight: 400 ; letter-spacing: normal ; text-align: center ; text-indent: 0px ; text-transform: none ; word-spacing: 0px ; background-color: rgb(248 , 249 , 250) ; display: inline ; float: none&quot;&gt;Display &quot;Great&quot;&lt;/span&gt;" style="rounded=0;whiteSpace=wrap;html=1;" vertex="1" parent="WIyWlLk6GJQsqaUBKTNV-1">
          <mxGeometry x="470" y="570" width="120" height="50" as="geometry" />
        </mxCell>
        <mxCell id="1Pa2cybxxwADOPsCGVAZ-10" value="END" style="rounded=0;whiteSpace=wrap;html=1;" vertex="1" parent="WIyWlLk6GJQsqaUBKTNV-1">
          <mxGeometry x="270" y="730" width="120" height="60" as="geometry" />
        </mxCell>
        <mxCell id="1Pa2cybxxwADOPsCGVAZ-39" style="edgeStyle=orthogonalEdgeStyle;rounded=0;orthogonalLoop=1;jettySize=auto;html=1;entryX=0;entryY=0.5;entryDx=0;entryDy=0;" edge="1" parent="WIyWlLk6GJQsqaUBKTNV-1" source="1Pa2cybxxwADOPsCGVAZ-11" target="1Pa2cybxxwADOPsCGVAZ-3">
          <mxGeometry relative="1" as="geometry">
            <Array as="points">
              <mxPoint x="70" y="280" />
            </Array>
          </mxGeometry>
        </mxCell>
        <mxCell id="1Pa2cybxxwADOPsCGVAZ-11" value="i = i+1" style="rounded=0;whiteSpace=wrap;html=1;" vertex="1" parent="WIyWlLk6GJQsqaUBKTNV-1">
          <mxGeometry x="10" y="655" width="120" height="60" as="geometry" />
        </mxCell>
        <mxCell id="1Pa2cybxxwADOPsCGVAZ-25" value="No" style="text;html=1;strokeColor=none;fillColor=none;align=center;verticalAlign=middle;whiteSpace=wrap;rounded=0;" vertex="1" parent="WIyWlLk6GJQsqaUBKTNV-1">
          <mxGeometry x="215" y="470" width="40" height="20" as="geometry" />
        </mxCell>
        <mxCell id="1Pa2cybxxwADOPsCGVAZ-28" value="Yes" style="text;html=1;strokeColor=none;fillColor=none;align=center;verticalAlign=middle;whiteSpace=wrap;rounded=0;" vertex="1" parent="WIyWlLk6GJQsqaUBKTNV-1">
          <mxGeometry x="110" y="530" width="40" height="20" as="geometry" />
        </mxCell>
        <mxCell id="1Pa2cybxxwADOPsCGVAZ-29" value="No" style="text;html=1;strokeColor=none;fillColor=none;align=center;verticalAlign=middle;whiteSpace=wrap;rounded=0;" vertex="1" parent="WIyWlLk6GJQsqaUBKTNV-1">
          <mxGeometry x="390" y="470" width="40" height="20" as="geometry" />
        </mxCell>
        <mxCell id="1Pa2cybxxwADOPsCGVAZ-30" value="Yes" style="text;html=1;strokeColor=none;fillColor=none;align=center;verticalAlign=middle;whiteSpace=wrap;rounded=0;" vertex="1" parent="WIyWlLk6GJQsqaUBKTNV-1">
          <mxGeometry x="290" y="540" width="40" height="20" as="geometry" />
        </mxCell>
        <mxCell id="1Pa2cybxxwADOPsCGVAZ-31" value="No" style="text;html=1;strokeColor=none;fillColor=none;align=center;verticalAlign=middle;whiteSpace=wrap;rounded=0;" vertex="1" parent="WIyWlLk6GJQsqaUBKTNV-1">
          <mxGeometry x="394" y="360" width="40" height="20" as="geometry" />
        </mxCell>
        <mxCell id="1Pa2cybxxwADOPsCGVAZ-32" value="Yes" style="text;html=1;strokeColor=none;fillColor=none;align=center;verticalAlign=middle;whiteSpace=wrap;rounded=0;" vertex="1" parent="WIyWlLk6GJQsqaUBKTNV-1">
          <mxGeometry x="290" y="420" width="40" height="20" as="geometry" />
        </mxCell>
        <mxCell id="1Pa2cybxxwADOPsCGVAZ-35" value="" style="edgeStyle=orthogonalEdgeStyle;rounded=0;orthogonalLoop=1;jettySize=auto;html=1;" edge="1" parent="WIyWlLk6GJQsqaUBKTNV-1" source="1Pa2cybxxwADOPsCGVAZ-33" target="1Pa2cybxxwADOPsCGVAZ-10">
          <mxGeometry relative="1" as="geometry" />
        </mxCell>
        <mxCell id="1Pa2cybxxwADOPsCGVAZ-38" style="edgeStyle=orthogonalEdgeStyle;rounded=0;orthogonalLoop=1;jettySize=auto;html=1;exitX=0;exitY=0.5;exitDx=0;exitDy=0;" edge="1" parent="WIyWlLk6GJQsqaUBKTNV-1" source="1Pa2cybxxwADOPsCGVAZ-33" target="1Pa2cybxxwADOPsCGVAZ-11">
          <mxGeometry relative="1" as="geometry" />
        </mxCell>
        <mxCell id="1Pa2cybxxwADOPsCGVAZ-33" value="" style="ellipse;whiteSpace=wrap;html=1;aspect=fixed;" vertex="1" parent="WIyWlLk6GJQsqaUBKTNV-1">
          <mxGeometry x="315" y="670" width="30" height="30" as="geometry" />
        </mxCell>
        <mxCell id="1Pa2cybxxwADOPsCGVAZ-40" value="&lt;h1&gt;Quiz5.4 Pseudo Code&lt;/h1&gt;&lt;div&gt;&lt;br&gt;&lt;/div&gt;&lt;div&gt;Begin&lt;/div&gt;&lt;div&gt;&amp;nbsp; Get i&amp;nbsp;&lt;/div&gt;&lt;div&gt;&lt;span&gt;    &lt;/span&gt;&lt;/div&gt;&lt;div&gt;&amp;nbsp; &amp;nbsp;Get Score&lt;/div&gt;&lt;div&gt;&amp;nbsp; &amp;nbsp; &amp;nbsp;for i=1 to 10 step 10&lt;/div&gt;&lt;div&gt;&amp;nbsp; &amp;nbsp; &amp;nbsp; &amp;nbsp; IF Score &amp;lt;50&lt;/div&gt;&lt;div&gt;&amp;nbsp; &amp;nbsp; &amp;nbsp; &amp;nbsp; &amp;nbsp; &amp;nbsp; Display &quot;F&quot;&lt;/div&gt;&lt;div&gt;&amp;nbsp; &amp;nbsp; &amp;nbsp; &amp;nbsp; &amp;nbsp;Else IF Score &amp;lt;80&lt;/div&gt;&lt;div&gt;&amp;nbsp; &amp;nbsp; &amp;nbsp; &amp;nbsp; &amp;nbsp; &amp;nbsp; &amp;nbsp; Display &quot;Good&quot;&lt;/div&gt;&lt;div&gt;&amp;nbsp; &amp;nbsp; &amp;nbsp; &amp;nbsp; &amp;nbsp; Else&lt;/div&gt;&lt;div&gt;&amp;nbsp; &amp;nbsp; &amp;nbsp; &amp;nbsp; &amp;nbsp; &amp;nbsp; &amp;nbsp; &amp;nbsp;Display &quot;Grate&quot;&lt;/div&gt;&lt;div&gt;END&lt;/div&gt;" style="text;html=1;strokeColor=none;fillColor=none;spacing=5;spacingTop=-20;whiteSpace=wrap;overflow=hidden;rounded=0;" vertex="1" parent="WIyWlLk6GJQsqaUBKTNV-1">
          <mxGeometry x="470" y="130" width="220" height="230" as="geometry" />
        </mxCell>
      </root>
    </mxGraphModel>
  </diagram>
</mxfile>
